<svg width="150" height="150" viewBox="0 0 150 150" fill="none" xmlns="http://www.w3.org/2000/svg">
<path d="M75.333 42C56.933 42 42 56.9333 42 75.3333C42 93.7333 56.933 108.667 75.333 108.667C93.733 108.667 108.667 93.7333 108.667 75.3333C108.667 56.9333 93.733 42 75.333 42ZM75.333 102C60.633 102 48.667 90.0333 48.667 75.3333C48.667 60.6333 60.633 48.6666 75.333 48.6666C90.033 48.6666 102 60.6333 102 75.3333C102 90.0333 90.033 102 75.333 102ZM90.633 60.6L68.667 82.5666L60.033 73.9666L55.333 78.6666L68.667 92L95.333 65.3333L90.633 60.6Z" fill="#55A25C"/>
</svg>
