<svg width="150" height="150" viewBox="0 0 150 150" fill="none" xmlns="http://www.w3.org/2000/svg">
<path d="M74.5 42C56.5275 42 42 56.5275 42 74.5C42 92.4725 56.5275 107 74.5 107C92.4725 107 107 92.4725 107 74.5C107 56.5275 92.4725 42 74.5 42ZM74.5 100.5C60.1675 100.5 48.5 88.8325 48.5 74.5C48.5 60.1675 60.1675 48.5 74.5 48.5C88.8325 48.5 100.5 60.1675 100.5 74.5C100.5 88.8325 88.8325 100.5 74.5 100.5ZM86.1675 58.25L74.5 69.9175L62.8325 58.25L58.25 62.8325L69.9175 74.5L58.25 86.1675L62.8325 90.75L74.5 79.0825L86.1675 90.75L90.75 86.1675L79.0825 74.5L90.75 62.8325L86.1675 58.25Z" fill="#E24D42"/>
</svg>
