<svg width="250" height="250" viewBox="0 0 250 250" fill="none" xmlns="http://www.w3.org/2000/svg">
<path d="M125.333 92C106.933 92 92 106.933 92 125.333C92 143.733 106.933 158.667 125.333 158.667C143.733 158.667 158.667 143.733 158.667 125.333C158.667 106.933 143.733 92 125.333 92ZM125.333 152C110.633 152 98.667 140.033 98.667 125.333C98.667 110.633 110.633 98.6666 125.333 98.6666C140.033 98.6666 152 110.633 152 125.333C152 140.033 140.033 152 125.333 152ZM140.633 110.6L118.667 132.567L110.033 123.967L105.333 128.667L118.667 142L145.333 115.333L140.633 110.6Z" fill="#55A25C"/>
</svg>
