<svg width="200" height="200" viewBox="0 0 200 200" fill="none" xmlns="http://www.w3.org/2000/svg">
<path d="M100.333 67C81.933 67 67 81.9333 67 100.333C67 118.733 81.933 133.667 100.333 133.667C118.733 133.667 133.667 118.733 133.667 100.333C133.667 81.9333 118.733 67 100.333 67ZM100.333 127C85.633 127 73.667 115.033 73.667 100.333C73.667 85.6333 85.633 73.6666 100.333 73.6666C115.033 73.6666 127 85.6333 127 100.333C127 115.033 115.033 127 100.333 127ZM115.633 85.6L93.667 107.567L85.033 98.9666L80.333 103.667L93.667 117L120.333 90.3333L115.633 85.6Z" fill="#55A25C"/>
</svg>
