<svg width="66" height="66" viewBox="0 0 66 66" fill="none" xmlns="http://www.w3.org/2000/svg">
<path d="M33 0.5C15.0275 0.5 0.5 15.0275 0.5 33C0.5 50.9725 15.0275 65.5 33 65.5C50.9725 65.5 65.5 50.9725 65.5 33C65.5 15.0275 50.9725 0.5 33 0.5ZM33 59C18.6675 59 7 47.3325 7 33C7 18.6675 18.6675 7 33 7C47.3325 7 59 18.6675 59 33C59 47.3325 47.3325 59 33 59ZM44.6675 16.75L33 28.4175L21.3325 16.75L16.75 21.3325L28.4175 33L16.75 44.6675L21.3325 49.25L33 37.5825L44.6675 49.25L49.25 44.6675L37.5825 33L49.25 21.3325L44.6675 16.75Z" fill="#E24D42"/>
</svg>
