<svg width="250" height="250" viewBox="0 0 250 250" fill="none" xmlns="http://www.w3.org/2000/svg">
<path d="M124.5 92C106.528 92 92 106.528 92 124.5C92 142.472 106.528 157 124.5 157C142.472 157 157 142.472 157 124.5C157 106.528 142.472 92 124.5 92ZM124.5 150.5C110.167 150.5 98.5 138.833 98.5 124.5C98.5 110.167 110.167 98.5 124.5 98.5C138.833 98.5 150.5 110.167 150.5 124.5C150.5 138.833 138.833 150.5 124.5 150.5ZM136.167 108.25L124.5 119.917L112.833 108.25L108.25 112.833L119.917 124.5L108.25 136.167L112.833 140.75L124.5 129.083L136.167 140.75L140.75 136.167L129.083 124.5L140.75 112.833L136.167 108.25Z" fill="#E24D42"/>
</svg>
