<svg width="200" height="200" viewBox="0 0 200 200" fill="none" xmlns="http://www.w3.org/2000/svg">
<path d="M99.5 67C81.5275 67 67 81.5275 67 99.5C67 117.472 81.5275 132 99.5 132C117.472 132 132 117.472 132 99.5C132 81.5275 117.472 67 99.5 67ZM99.5 125.5C85.1675 125.5 73.5 113.833 73.5 99.5C73.5 85.1675 85.1675 73.5 99.5 73.5C113.833 73.5 125.5 85.1675 125.5 99.5C125.5 113.833 113.833 125.5 99.5 125.5ZM111.167 83.25L99.5 94.9175L87.8325 83.25L83.25 87.8325L94.9175 99.5L83.25 111.167L87.8325 115.75L99.5 104.083L111.167 115.75L115.75 111.167L104.083 99.5L115.75 87.8325L111.167 83.25Z" fill="#E24D42"/>
</svg>
