<svg width="68" height="68" viewBox="0 0 68 68" fill="none" xmlns="http://www.w3.org/2000/svg">
<path d="M33.999 0.667969C15.599 0.667969 0.666016 15.6013 0.666016 34.0013C0.666016 52.4013 15.599 67.3346 33.999 67.3346C52.399 67.3346 67.333 52.4013 67.333 34.0013C67.333 15.6013 52.399 0.667969 33.999 0.667969ZM33.999 60.668C19.299 60.668 7.33302 48.7013 7.33302 34.0013C7.33302 19.3013 19.299 7.3346 33.999 7.3346C48.699 7.3346 60.666 19.3013 60.666 34.0013C60.666 48.7013 48.699 60.668 33.999 60.668ZM49.299 19.268L27.333 41.2346L18.699 32.6346L13.999 37.3346L27.333 50.668L53.999 24.0013L49.299 19.268Z" fill="#55A25C"/>
</svg>
